<?xml version="1.0" standalone="no"?>
<!DOCTYPE svg PUBLIC "-//W3C//DTD SVG 20010904//EN"
 "http://www.w3.org/TR/2001/REC-SVG-20010904/DTD/svg10.dtd">
<svg version="1.0" xmlns="http://www.w3.org/2000/svg"
 width="118.000000pt" height="118.000000pt" viewBox="0 0 118.000000 118.000000"
 preserveAspectRatio="xMidYMid meet">
<metadata>
Created by potrace 1.11, written by Peter Selinger 2001-2013
</metadata>
<g transform="translate(0.000000,118.000000) scale(0.100000,-0.100000)"
fill="#000000" stroke="none">
<path d="M141 1019 l-113 -111 35 -37 c49 -51 64 -115 43 -181 -5 -14 -24 -59
-43 -100 -19 -41 -34 -75 -32 -75 1 0 -3 -11 -10 -23 -15 -28 -17 -108 -3
-125 10 -12 12 -18 12 -35 0 -13 72 -82 102 -98 43 -22 163 -58 183 -55 3 1
19 -6 35 -14 17 -9 30 -13 30 -9 0 4 7 0 17 -7 9 -8 17 -13 17 -11 3 10 61
-22 96 -54 l41 -38 27 32 c27 31 113 77 162 85 14 3 36 8 50 11 14 3 37 8 52
10 45 7 168 49 168 58 0 4 7 5 15 2 8 -4 15 -1 15 5 0 6 6 11 14 11 18 0 56
45 80 95 10 22 23 48 27 57 12 24 11 58 -1 58 -5 0 -9 4 -7 8 2 8 -43 113 -53
122 -13 11 -50 110 -50 133 0 43 28 92 75 135 26 23 43 42 38 42 -5 0 -59 50
-120 110 l-111 110 -339 0 -338 0 -114 -111z"/>
</g>
</svg>
